<?xml version="1.0" encoding="UTF-8"?>
<svg version="1.1" xmlns="http://www.w3.org/2000/svg" width="512" height="512" viewBox="0 0 512 512">
<path d="M0 0 C1.01790619 0.00215515 2.03581238 0.0043103 3.08456421 0.00653076 C17.69363523 0.05620146 32.02575853 0.30709809 46.375 3.3125 C47.34985352 3.51117676 48.32470703 3.70985352 49.32910156 3.91455078 C97.7109774 14.03517194 141.69928269 35.9516877 177.375 70.3125 C178.3640332 71.26068604 178.3640332 71.26068604 179.37304688 72.22802734 C188.86130305 81.37247479 197.6012044 90.66984009 205.375 101.3125 C206.23306152 102.46355017 207.09113451 103.61459177 207.94921875 104.765625 C213.98736829 112.95680614 219.34595521 121.47054105 224.375 130.3125 C224.73948242 130.94430176 225.10396484 131.57610352 225.47949219 132.22705078 C247.08534998 169.97532572 256.85198095 212.74189997 256.6875 255.9375 C256.68534485 256.95540619 256.6831897 257.97331238 256.68096924 259.02206421 C256.63129854 273.63113523 256.38040191 287.96325853 253.375 302.3125 C253.07698486 303.77478027 253.07698486 303.77478027 252.77294922 305.26660156 C242.65232806 353.6484774 220.7358123 397.63678269 186.375 433.3125 C185.74287598 433.97185547 185.11075195 434.63121094 184.45947266 435.31054688 C175.31502521 444.79880305 166.01765991 453.5387044 155.375 461.3125 C154.22394983 462.17056152 153.07290823 463.02863451 151.921875 463.88671875 C143.73224019 469.92427396 135.22961724 475.30707302 126.375 480.3125 C125.66778809 480.7146875 124.96057617 481.116875 124.23193359 481.53125 C101.09654164 494.5566741 75.92537591 503.30551461 49.9375 508.625 C49.21860596 508.77235596 48.49971191 508.91971191 47.7590332 509.0715332 C33.08339502 511.86090125 18.55831162 512.66142619 3.64770508 512.62817383 C0.70811513 512.6250221 -2.2304558 512.64854926 -5.16992188 512.67382812 C-18.54306192 512.71848737 -31.43916711 511.51301542 -44.625 509.3125 C-46.33055054 509.03031616 -46.33055054 509.03031616 -48.07055664 508.74243164 C-91.33802759 500.97044532 -132.38793216 480.98345309 -165.625 452.3125 C-166.37007813 451.67828125 -167.11515625 451.0440625 -167.8828125 450.390625 C-181.38779833 438.57948485 -194.05918743 425.82889772 -204.625 411.3125 C-205.48149066 410.16255169 -206.33826433 409.01281411 -207.1953125 407.86328125 C-213.23534209 399.67315742 -218.61867614 391.16870382 -223.625 382.3125 C-224.0271875 381.60528809 -224.429375 380.89807617 -224.84375 380.16943359 C-237.8691741 357.03404164 -246.61801461 331.86287591 -251.9375 305.875 C-252.08485596 305.15610596 -252.23221191 304.43721191 -252.3840332 303.6965332 C-255.35789088 288.05024391 -255.99800362 272.57681954 -255.9375 256.6875 C-255.93534485 255.66959381 -255.9331897 254.65168762 -255.93096924 253.60293579 C-255.88129854 238.99386477 -255.63040191 224.66174147 -252.625 210.3125 C-252.42632324 209.33764648 -252.22764648 208.36279297 -252.02294922 207.35839844 C-241.90232806 158.9765226 -219.9858123 114.98821731 -185.625 79.3125 C-184.99287598 78.65314453 -184.36075195 77.99378906 -183.70947266 77.31445312 C-174.56502521 67.82619695 -165.26765991 59.0862956 -154.625 51.3125 C-153.47394983 50.45443848 -152.32290823 49.59636549 -151.171875 48.73828125 C-142.98224019 42.70072604 -134.47961724 37.31792698 -125.625 32.3125 C-124.91778809 31.9103125 -124.21057617 31.508125 -123.48193359 31.09375 C-100.34654164 18.0683259 -75.17537591 9.31948539 -49.1875 4 C-48.46860596 3.85264404 -47.74971191 3.70528809 -47.0090332 3.5534668 C-31.36274391 0.57960912 -15.88931954 -0.06050362 0 0 Z " fill="#0986F6" transform="translate(255.625,-0.3125)"/>
<path d="M0 0 C4.64721396 3.94658437 8.56851748 7.54813986 9.3515625 13.8125 C8.91429143 17.77709105 7.3108844 20.60185406 5.375 24 C-5.36982263 44.28834592 -8.18996776 68.20653489 -8.3125 90.875 C-8.32095947 92.34525635 -8.32095947 92.34525635 -8.32958984 93.84521484 C-8.24643412 102.0268929 -6.76309217 109.30281468 -4 117 C0.33441354 117.44264959 0.33441354 117.44264959 3.9921875 115.38671875 C14.00276367 103.48698716 17.60409758 84.71413589 20.46166992 69.80810547 C21 68 21 68 23 66 C27.00494632 65.40467014 30.78625733 65.52634432 34.5625 67 C37.34390929 70.86978683 36.09690972 76.35550134 35.42089844 80.85131836 C35.15842084 82.18243546 34.8875775 83.5119241 34.609375 84.83984375 C34.46348938 85.56506729 34.31760376 86.29029083 34.16729736 87.03749084 C33.85815654 88.56682786 33.54533687 90.09542544 33.22900391 91.62329102 C32.75796688 93.89900964 32.29784079 96.17670343 31.83984375 98.45507812 C28.84260342 113.25928266 25.73224793 127.92326846 20.6875 142.1875 C20.29506104 143.30318359 19.90262207 144.41886719 19.49829102 145.56835938 C13.70251981 161.7272663 7.2550182 177.17564843 -9 185 C-16.78383879 187.59461293 -26.19638448 186.89750387 -33.6171875 183.46875 C-48.28979064 174.42465364 -56.62860034 158.74415321 -61.1953125 142.55859375 C-62.87814097 135.11657074 -64.03786151 127.56718674 -65 120 C-65.08284241 119.36214569 -65.16568481 118.72429138 -65.2510376 118.06710815 C-65.95075509 112.32087387 -66.20374082 106.63726841 -66.2734375 100.8515625 C-66.28592026 99.8932251 -66.29840302 98.9348877 -66.31126404 97.94750977 C-67.12473192 20.29865853 -67.12473192 20.29865853 -50.17578125 -0.20703125 C-35.93461208 -12.47772418 -14.92988195 -10.31267771 0 0 Z " fill="#FDFEFE" transform="translate(271,202)"/>
<path d="M0 0 C8.23405862 4.60476101 13.85352823 10.22890315 17.37890625 19.12109375 C20.21323956 29.40677392 18.41011182 39.09072646 13.2421875 48.25390625 C8.48131794 55.54943594 1.57952853 59.95811669 -6.7578125 62.25390625 C-16.42248886 63.21430819 -24.55796045 63.0089876 -32.7578125 57.25390625 C-33.74007812 56.56748047 -33.74007812 56.56748047 -34.7421875 55.8671875 C-40.9438834 51.03039475 -44.66856355 44.78979984 -46.7578125 37.25390625 C-47.93530056 26.63386974 -47.14572929 18.15621582 -40.7578125 9.25390625 C-30.47455213 -2.4046873 -14.38687117 -6.76890496 0 0 Z " fill="#FCFEFE" transform="translate(279.7578125,126.74609375)"/>
</svg>
